inDegrees=yes
name=ik_S44_A10_T03
DataType=double
version=3
OpenSimVersion=4.3-2021-08-27-4bc7ad9
endheader
time	pelvis_tilt	pelvis_list	pelvis_rotation	pelvis_tx	pelvis_ty	pelvis_tz	hip_flexion_r	hip_adduction_r	hip_rotation_r	knee_angle_r	knee_angle_r_beta	ankle_angle_r	subtalar_angle_r	mtp_angle_r	hip_flexion_l	hip_adduction_l	hip_rotation_l	knee_angle_l	knee_angle_l_beta	ankle_angle_l	subtalar_angle_l	mtp_angle_l	lumbar_extension	lumbar_bending	lumbar_rotation	arm_flex_r	arm_add_r	arm_rot_r	elbow_flex_r	pro_sup_r	wrist_flex_r	wrist_dev_r	arm_flex_l	arm_add_l	arm_rot_l	elbow_flex_l	pro_sup_l	wrist_flex_l	wrist_dev_l
16.91999999999973	-1.561460406221124	-1.32296250525522	24.45040441130713	0	0.9399999999999999	0	44.9957140545082	-10.00000033573838	-10.00001534784159	54.96994266466152	0.9594064891308488	0	0	0	44.9957140545082	-10.00000033573838	-10.00001534784159	54.96994266466152	0.9594064891308488	0	0	0	-1.924760542385035	-0.2144717897818521	3.29568320567881	33.89138732301535	1.440192046515674	2.132939893983647	21.69006637692419	89.5882255685637	0	0	43.61341189785414	7.793135517226139	6.991064874002597	14.50258841880669	67.75981490166437	0	0
16.93999999999973	-1.570080262318677	-1.356704577109265	24.34287608813726	0	0.9399999999999999	0	44.99574481011949	-10.00000032989013	-10.00001515510706	54.97013349649321	0.9594098197746294	0	0	0	44.99574481011949	-10.00000032989013	-10.00001515510706	54.97013349649321	0.9594098197746294	0	0	0	-1.942588567304555	-0.24892201778023	3.291627968419918	31.77327014704456	1.112466153127314	1.715869337366278	21.24657151258789	92.30625076694594	0	0	41.45356278022538	7.097001920946629	7.250272766905337	13.44178714819401	70.02347325895042	0	0
16.95999999999973	-1.564450052004341	-1.354024081903796	24.43900006301519	0	0.9399999999999999	0	44.99577952728689	-10.00000032327441	-10.00001493729165	54.97034812260263	0.9594135657068994	0	0	0	44.99577952728689	-10.00000032327441	-10.00001493729165	54.97034812260263	0.9594135657068994	0	0	0	-1.940334045938725	-0.2452218579228973	3.209821921322747	29.47841173534855	0.7733212694169213	2.022611551557572	20.08929766700783	94.36769570981212	0	0	39.49277548959904	6.434847229584348	7.428758169318725	14.3758366423272	70.651780514073	0	0
16.97999999999973	-1.526417850861643	-1.34476414013099	24.3559165442996	0	0.9399999999999999	0	44.99578196832629	-10.00000032259854	-10.00001491794238	54.97035966101456	0.959413767090178	0	0	0	44.99578196832629	-10.00000032259854	-10.00001491794238	54.97035966101456	0.959413767090178	0	0	0	-1.900523404232451	-0.2518244572846226	3.229087723277721	29.37274671811412	0.933172553903993	2.056312067040439	19.05511420414441	95.06304520666099	0	0	37.39039775501786	5.840561968015225	8.10714739622949	14.46513496592591	71.04519915738638	0	0
16.99999999999973	-1.454783014526805	-1.329622586486852	24.17166332713534	0	0.9399999999999999	0	44.995784769019	-10.0000003218238	-10.00001489574975	54.97037289278555	0.9594139980281476	0	0	0	44.995784769019	-10.0000003218238	-10.00001489574975	54.97037289278555	0.9594139980281476	0	0	0	-1.826351694238678	-0.2661437231097477	3.275873665971896	29.16511185663853	1.273293806029089	2.110442947037964	16.90063370524505	96.21597565072327	0	0	34.99630652017919	5.351756481979909	9.037075132256733	14.92574040057182	71.02392901638444	0	0
17.01999999999973	-1.397102613505331	-1.28025480497217	24.0510072030548	0	0.9399999999999999	0	44.99587489753763	-10.00000030513906	-10.00001433892162	54.97093290488451	0.9594237720831257	0	0	0	44.99587489753763	-10.00000030513906	-10.00001433892162	54.97093290488451	0.9594237720831257	0	0	0	-1.757483434909626	-0.238085362722382	3.088022811526546	22.64052206516727	-0.07701463668081224	3.936198221897196	21.62917290275641	95.71047019276304	0	0	32.77776999233209	4.915566118181062	9.433191264807737	15.04621528790092	71.31830358415542	0	0
17.03999999999973	-1.399491594332447	-1.280429956364929	24.0466686791295	0	0.9399999999999999	0	44.99588565022415	-10.00000030314986	-10.00001427238236	54.97099838146615	0.9594249148650581	0	0	0	44.99588565022415	-10.00000030314986	-10.00001427238236	54.97099838146615	0.9594249148650581	0	0	0	-1.75813960560731	-0.2402050384490023	3.088055680114127	22.56753317995468	0.1575702309895771	3.908279925613539	19.6680052563465	95.8673176310607	0	0	30.76938535240958	4.578018425529194	9.847720672367332	15.04213882794898	71.5162779156842	0	0
17.05999999999973	-1.287609085247017	-1.230185948219522	23.95013796336509	0	0.9399999999999999	0	44.99591743203496	-10.00000029750102	-10.00001408058007	54.97119784559536	0.9594283961708525	0	0	0	44.99591743203496	-10.00000029750102	-10.00001408058007	54.97119784559536	0.9594283961708525	0	0	0	-1.634339876063209	-0.2363332950578912	3.04822857709069	20.44951835541286	0.2742092553953219	4.414198507558021	18.20765521419349	94.07060701966027	0	0	28.52071790908658	4.024353024748061	10.22257345718422	16.0924521339764	71.58051869975002	0	0
17.07999999999972	-1.293965040464901	-1.233976473767507	23.97917971354435	0	0.9399999999999999	0	44.995973253485	-10.00000028744564	-10.00001374076435	54.97154318627346	0.9594344235027263	0	0	0	44.995973253485	-10.00000028744564	-10.00001374076435	54.97154318627346	0.9594344235027263	0	0	0	-1.643171396750191	-0.2378596725185539	3.016443309268303	16.72120541521173	-0.3885848376862915	4.894708596078353	22.06721873760577	93.64946595034517	0	0	28.42685040136611	4.261582120981934	10.15188622432604	13.61866493425541	72.16315743554122	0	0
17.09999999999972	-1.277887762221219	-1.198826793892166	23.85265502638507	0	0.9399999999999999	0	44.9960083933644	-10.00000028127948	-10.00001353017507	54.97176276912003	0.95943825594638	0	0	0	44.9960083933644	-10.00000028127948	-10.00001353017507	54.97176276912003	0.95943825594638	0	0	0	-1.608481401812035	-0.2253900854156358	3.061057847054768	14.91121379942684	-0.3594738119657911	4.614926991625729	21.52994757659285	92.26769471867347	0	0	26.28091218045205	3.752157328648967	10.33559037835851	15.01116101253148	71.9118792121663	0	0
17.11999999999972	-1.227901114661405	-1.184507585536539	23.89856470931785	0	0.9399999999999999	0	44.99605111171125	-10.00000027399219	-10.00001327817656	54.97203184030194	0.9594429521244265	0	0	0	44.99605111171125	-10.00000027399219	-10.00001327817656	54.97203184030194	0.9594429521244265	0	0	0	-1.562482358581012	-0.2260661569550107	2.948775132063225	13.42211421351993	-0.5192177229014759	4.296391445640261	21.52926810452785	91.92490813225794	0	0	22.87959815287253	2.925379256288741	9.535754840076383	16.69818582427646	72.46678772898986	0	0
17.13999999999972	-1.187583592913406	-1.210923606983149	23.81995381384753	0	0.9399999999999999	0	44.99607253559035	-10.00000027042261	-10.00001315342556	54.97216735332067	0.9594453172727827	0	0	0	44.99607253559035	-10.00000027042261	-10.00001315342556	54.97216735332067	0.9594453172727827	0	0	0	-1.537415755767267	-0.2645088428708299	2.88478115296882	12.11361981589174	-0.5528321358479185	3.994683664581541	21.45073248268007	91.71249877580497	0	0	21.40190249389602	2.554458211049959	9.023338703983859	16.66109439421058	72.55127830363195	0	0
17.15999999999972	-1.159557174310379	-1.223338221678512	23.78479413393496	0	0.9399999999999999	0	44.99608914931918	-10.00000026753364	-10.00001305419733	54.97226956574897	0.9594471012161929	0	0	0	44.99608914931918	-10.00000026753364	-10.00001305419733	54.97226956574897	0.9594471012161929	0	0	0	-1.517786529590192	-0.2863960644335191	2.83958981449577	10.7696230811525	-0.6466935982755226	3.579927251869615	21.81856467327751	91.71498155530136	0	0	19.99993457917441	2.349938849101315	8.101170137207394	15.1578153768564	74.10930949194866	0	0
17.17999999999972	-1.146245558756629	-1.225634853355734	23.74116663507016	0	0.9399999999999999	0	44.9960920930245	-10.00000026680004	-10.00001303217956	54.97228359902416	0.9594473461430498	0	0	0	44.9960920930245	-10.00000026680004	-10.00001303217956	54.97228359902416	0.9594473461430498	0	0	0	-1.505796503658903	-0.2949107930502132	2.837172079918228	9.646987123810502	-0.8917045756823178	2.808844983830157	22.13902448574111	92.5121477608304	0	0	18.94576189999756	2.028023427492474	7.032793694282271	14.52845646221728	76.43449155991684	0	0
17.19999999999972	-1.116722609096813	-1.221400768959002	23.87384990841705	0	0.9399999999999999	0	44.99609490885243	-10.00000026610045	-10.00001301115503	54.97229704237449	0.9594475807737756	0	0	0	44.99609490885243	-10.00000026610045	-10.00001301115503	54.97229704237449	0.9594475807737756	0	0	0	-1.479735961665352	-0.2979706093853259	2.689729251378595	9.623664261913861	-0.9066090769852452	2.74894176341811	21.44344597917343	93.12466319385261	0	0	17.92789964684831	1.804335883129242	6.14666060596451	13.92752881237135	78.77301849987589	0	0
17.21999999999972	-1.058877669790331	-1.217655301629161	23.91927997494098	0	0.9399999999999999	0	44.99609600536185	-10.0000002658304	-10.00001300301368	54.97230231581241	0.9594476728126303	0	0	0	44.99609600536185	-10.0000002658304	-10.00001300301368	54.97230231581241	0.9594476728126303	0	0	0	-1.427103787626862	-0.3152607982722426	2.608895053139929	9.498260162882012	-0.863203829339159	2.761568274896606	21.08752783196115	93.16948278526569	0	0	16.87557727127754	1.610956780770817	5.712359965545277	14.22527606738608	79.53968085589905	0	0
17.23999999999972	-1.059386685537192	-1.222760532734248	23.65144279577903	0	0.9399999999999999	0	44.99612218097155	-10.00000026133569	-10.00001284797364	54.97246512341484	0.9594505143413399	0	0	0	44.99612218097155	-10.00000026133569	-10.00001284797364	54.97246512341484	0.9594505143413399	0	0	0	-1.422880430955151	-0.3349045025326935	2.825741652473423	7.446900995907301	-0.8739368151591622	0.09740115265330289	21.58639402338605	95.15155786675449	0	0	15.87730749508597	1.582028506523646	5.494058791689933	14.24598717453381	79.51088741610154	0	0
17.25999999999972	-1.054408513567177	-1.212455013640446	23.58569738631676	0	0.9399999999999999	0	44.99612338894488	-10.00000026103998	-10.00001283902978	54.97247091506949	0.9594506154247826	0	0	0	44.99612338894488	-10.00000026103998	-10.00001283902978	54.97247091506949	0.9594506154247826	0	0	0	-1.413303781276159	-0.3282812822755652	2.868888417310643	7.076971217113522	-0.7789626674551637	-0.4789190273111308	21.11089040098975	95.18611027579755	0	0	14.93044997559314	1.698703380493555	5.270564900785986	14.19671434435059	78.81269916677289	0	0
17.27999999999972	-1.049279754681488	-1.210072689051609	23.57446517273634	0	0.9399999999999999	0	44.99612503777304	-10.00000026063612	-10.00001282681469	54.97247880892979	0.9594507531986355	0	0	0	44.99612503777304	-10.00000026063612	-10.00001282681469	54.97247880892979	0.9594507531986355	0	0	0	-1.407942572027798	-0.32740284815274	2.867200865764912	6.886134824941438	-0.6499352770902342	-0.8431236172011563	20.39559353216998	96.19510323506024	0	0	14.14185277356549	1.812878881682079	5.145115644697908	14.24713644825018	78.37968297956151	0	0
17.29999999999972	-1.004486260905508	-1.192861983843631	23.52334280053704	0	0.9399999999999999	0	44.99612651282225	-10.00000026027578	-10.0000128159044	54.97248588313634	0.9594508766668318	0	0	0	44.99612651282225	-10.00000026027578	-10.0000128159044	54.97248588313634	0.9594508766668318	0	0	0	-1.360687629666361	-0.3282773511267801	2.827362605282297	6.669176372171564	-0.4591383966003603	-0.6735051740175981	19.81460394849086	96.375295201163	0	0	13.48564908645681	2.011570142991757	4.991506556078749	13.98318204925479	78.94505661199884	0	0
